<?xml version="1.0" standalone="no"?>
<!DOCTYPE svg PUBLIC "-//W3C//DTD SVG 20010904//EN"
 "http://www.w3.org/TR/2001/REC-SVG-20010904/DTD/svg10.dtd">
<svg version="1.0" xmlns="http://www.w3.org/2000/svg"
 width="1024.000000pt" height="1024.000000pt" viewBox="0 0 1024.000000 1024.000000"
 preserveAspectRatio="xMidYMid meet">
<metadata>
Created by potrace 1.14, written by Peter Selinger 2001-2017
</metadata>
<g transform="translate(0.000000,1024.000000) scale(0.100000,-0.100000)"
fill="#000000" stroke="none">
<path d="M5090 9468 c-12 -24 -29 -50 -36 -58 -7 -8 -14 -22 -16 -30 -2 -8 -5
-17 -8 -20 -13 -12 -120 -199 -120 -209 0 -6 -4 -11 -9 -11 -5 0 -11 -8 -14
-17 -6 -18 -37 -73 -47 -83 -3 -3 -15 -23 -27 -45 -11 -22 -29 -54 -40 -72
-10 -17 -53 -91 -95 -164 -43 -73 -78 -136 -78 -141 0 -4 -4 -8 -10 -8 -5 0
-10 -4 -10 -9 0 -7 -75 -140 -151 -266 -10 -16 -30 -52 -45 -80 -14 -27 -31
-53 -36 -56 -5 -3 -9 -9 -9 -13 1 -3 -5 -16 -12 -29 -41 -68 -74 -126 -92
-159 -11 -21 -23 -38 -27 -38 -5 0 -8 -9 -8 -20 0 -11 -4 -20 -10 -20 -5 0
-10 -4 -10 -9 0 -10 -70 -132 -80 -141 -3 -3 -12 -20 -19 -37 -8 -18 -17 -33
-22 -33 -5 0 -9 -4 -9 -9 0 -10 -79 -153 -89 -161 -6 -5 -32 -51 -70 -125 -9
-16 -18 -32 -21 -35 -5 -5 -18 -27 -44 -75 -6 -11 -13 -22 -16 -25 -3 -3 -11
-16 -18 -30 -7 -14 -23 -43 -37 -65 -13 -22 -27 -47 -31 -55 -5 -8 -72 -125
-151 -259 -79 -134 -143 -245 -143 -246 0 -1 -31 -54 -68 -116 -37 -63 -71
-121 -75 -129 -4 -8 -18 -33 -31 -55 -14 -22 -31 -51 -39 -65 -25 -45 -53 -93
-121 -207 -36 -61 -66 -114 -66 -117 0 -3 -13 -25 -30 -49 -16 -25 -30 -48
-30 -51 0 -4 -11 -25 -26 -47 -25 -40 -46 -75 -93 -159 -14 -25 -29 -46 -33
-48 -4 -2 -8 -8 -8 -12 0 -5 -33 -65 -72 -135 -40 -69 -86 -149 -102 -178 -16
-28 -32 -54 -35 -57 -3 -3 -11 -14 -17 -25 -47 -89 -60 -111 -65 -115 -3 -3
-19 -29 -35 -57 -32 -58 -224 -391 -264 -458 -14 -23 -49 -84 -79 -136 -30
-52 -83 -143 -119 -204 -36 -60 -73 -123 -82 -140 -30 -52 -248 -428 -273
-470 -7 -11 -16 -23 -22 -27 -5 -4 -6 -8 -1 -8 5 0 4 -6 -2 -12 -10 -13 -199
-334 -234 -398 -11 -19 -30 -53 -43 -75 -14 -22 -30 -51 -37 -65 -7 -14 -15
-27 -18 -30 -3 -3 -11 -15 -17 -27 -7 -13 -19 -33 -25 -45 -7 -13 -15 -25 -18
-28 -3 -3 -12 -19 -21 -35 -38 -74 -64 -120 -70 -125 -10 -8 -89 -151 -89
-160 0 -5 -3 -10 -8 -12 -6 -3 -57 -87 -123 -204 -10 -18 -29 -50 -42 -71 -13
-21 -26 -45 -30 -53 -4 -8 -31 -55 -61 -105 -30 -49 -67 -114 -81 -143 -15
-28 -31 -52 -36 -52 -5 0 -9 -9 -9 -19 0 -11 -4 -22 -9 -25 -5 -3 -24 -32 -42
-64 -18 -31 -44 -75 -56 -97 -13 -22 -26 -48 -30 -57 -3 -10 -9 -18 -14 -18
-5 0 -9 -4 -9 -10 0 -5 -25 -50 -55 -101 -30 -50 -55 -93 -55 -95 0 -3 -12
-23 -27 -47 -15 -23 -38 -62 -51 -87 -13 -25 -31 -56 -40 -70 -32 -49 -53 -85
-58 -102 -4 -10 -10 -18 -15 -18 -5 0 -9 -5 -9 -11 0 -10 -107 -197 -120 -209
-3 -3 -6 -12 -8 -20 -2 -8 -9 -22 -16 -30 -7 -8 -25 -36 -40 -62 l-27 -48
5121 0 5122 0 -20 33 c-10 17 -28 48 -38 67 -10 19 -22 37 -25 40 -3 3 -23 37
-44 75 -21 39 -42 71 -47 73 -4 2 -8 8 -8 14 0 5 -48 92 -107 191 -58 100
-111 191 -117 202 -6 11 -17 28 -25 38 -8 9 -10 17 -5 17 5 0 4 4 -1 8 -9 6
-259 428 -305 514 -20 38 -229 397 -249 428 -8 14 -21 34 -27 45 -13 24 -36
63 -104 180 -29 50 -62 106 -73 125 -11 19 -28 49 -38 65 -10 17 -23 39 -29
50 -6 11 -22 41 -38 66 -15 26 -63 108 -107 184 -44 76 -91 156 -104 179 -13
23 -33 57 -44 76 -10 19 -41 72 -68 118 -27 45 -49 87 -49 92 0 6 -4 10 -10
10 -5 0 -10 7 -10 15 0 8 -4 15 -8 15 -5 0 -14 16 -22 35 -8 19 -17 35 -22 35
-4 0 -8 4 -8 10 0 5 -14 33 -31 62 -18 29 -46 78 -62 108 -17 30 -33 57 -37
60 -4 3 -13 19 -22 35 -20 40 -51 94 -82 144 -15 22 -26 45 -26 51 0 5 -5 10
-12 10 -6 0 -8 3 -5 7 4 3 1 13 -6 22 -21 25 -97 158 -97 170 0 6 -4 11 -9 11
-5 0 -11 8 -14 18 -4 9 -18 35 -32 57 -13 22 -28 47 -32 55 -4 7 -23 41 -43
75 -19 33 -44 77 -55 98 -11 20 -23 37 -27 37 -5 0 -8 4 -8 9 0 5 -23 49 -51
98 -29 48 -63 108 -77 133 -13 25 -30 52 -37 60 -6 8 -15 23 -18 32 -4 10 -21
42 -39 70 -18 29 -40 67 -48 83 -8 17 -18 32 -21 35 -3 3 -21 32 -39 65 -18
33 -50 89 -72 124 -21 34 -38 65 -38 67 0 2 -27 48 -60 103 -33 55 -60 104
-60 110 0 5 -3 11 -8 13 -9 4 -132 217 -132 229 0 5 -4 9 -10 9 -5 0 -10 4
-10 9 0 5 -43 82 -96 172 -53 90 -106 182 -119 204 -12 22 -39 68 -59 102 -20
34 -36 66 -36 71 0 6 -3 12 -8 14 -9 4 -82 126 -82 138 0 5 -3 10 -7 12 -5 2
-16 18 -25 36 -44 81 -54 97 -65 110 -7 7 -13 19 -13 26 0 6 -5 17 -12 24 -12
12 -63 97 -93 157 -9 17 -24 44 -35 60 -11 17 -23 37 -27 45 -3 8 -19 34 -34
56 -16 23 -25 44 -22 48 4 3 2 6 -4 6 -6 0 -16 12 -22 28 -6 15 -16 36 -23 47
-42 64 -219 368 -247 423 -8 15 -17 29 -20 32 -4 3 -12 16 -18 30 -7 14 -24
43 -37 65 -14 22 -31 51 -39 65 -7 14 -87 151 -177 305 -90 154 -171 294 -180
310 -9 17 -40 69 -69 117 -28 48 -51 91 -51 97 0 6 -4 11 -9 11 -5 0 -11 8
-14 18 -8 23 -40 76 -49 80 -5 2 -8 7 -8 12 0 5 -22 47 -50 95 -27 48 -50 91
-50 96 0 5 -4 9 -10 9 -5 0 -10 7 -10 15 0 8 -4 15 -10 15 -5 0 -10 4 -10 9 0
5 -23 49 -51 98 -61 104 -82 141 -108 187 -32 56 -46 76 -52 76 -3 0 -16 -19
-29 -42z m-518 -1899 c47 -85 65 -115 97 -166 18 -29 31 -54 29 -57 -2 -2 4
-12 13 -22 9 -11 19 -26 23 -34 3 -8 15 -28 26 -45 11 -16 23 -37 27 -45 4 -7
24 -42 45 -77 21 -34 38 -67 38 -71 0 -5 9 -17 20 -27 10 -9 18 -20 17 -24 -1
-6 86 -159 137 -241 13 -19 26 -42 30 -50 4 -8 12 -24 19 -35 44 -73 122 -207
153 -265 11 -19 22 -37 25 -40 3 -3 44 -72 92 -155 47 -82 91 -155 97 -162 5
-7 10 -14 10 -17 0 -3 36 -67 80 -142 44 -75 80 -141 80 -145 0 -5 5 -9 10 -9
6 0 10 -4 10 -9 0 -5 27 -55 60 -111 33 -56 60 -106 60 -111 0 -5 3 -9 8 -9 4
0 12 -10 18 -23 19 -39 77 -142 83 -147 3 -3 12 -16 19 -29 8 -13 22 -38 31
-55 10 -17 33 -58 51 -91 19 -33 36 -62 39 -65 4 -3 12 -16 19 -29 29 -50 51
-89 101 -175 28 -49 51 -92 51 -97 0 -4 4 -9 8 -11 5 -1 22 -28 39 -58 24 -45
79 -139 138 -238 6 -9 21 -35 33 -57 12 -22 34 -58 47 -80 14 -22 32 -56 42
-75 9 -19 20 -37 23 -40 3 -3 43 -70 89 -150 46 -80 94 -161 106 -180 12 -19
37 -62 55 -95 18 -33 45 -78 59 -100 14 -22 26 -46 27 -54 2 -8 7 -17 12 -20
5 -3 27 -37 48 -74 22 -38 44 -76 49 -85 6 -9 26 -44 45 -77 19 -33 40 -69 47
-80 7 -11 18 -31 25 -45 7 -14 15 -27 18 -30 5 -5 15 -21 58 -99 13 -25 33
-57 42 -71 9 -14 30 -50 46 -80 16 -30 31 -57 35 -60 3 -3 19 -30 35 -60 16
-30 32 -57 35 -60 4 -3 19 -27 33 -55 15 -27 35 -63 45 -80 10 -16 46 -77 79
-133 34 -57 62 -106 62 -108 0 -3 11 -21 24 -42 57 -90 196 -331 196 -341 0
-6 3 -11 8 -11 4 0 25 -34 47 -75 22 -41 43 -75 47 -75 5 0 8 -5 8 -11 0 -5
38 -74 84 -152 46 -78 96 -162 110 -187 15 -25 29 -53 33 -62 3 -10 9 -18 14
-18 5 0 9 -4 9 -10 0 -8 53 -103 90 -160 6 -8 19 -34 31 -58 12 -23 25 -45 30
-48 5 -3 9 -11 9 -19 0 -11 -607 -13 -3770 -13 l-3771 0 22 36 c12 21 29 51
37 67 8 17 21 37 28 45 7 8 14 22 16 30 2 8 5 17 9 20 9 8 69 110 69 117 0 3
6 14 14 22 7 9 24 36 37 61 13 25 26 47 29 50 3 3 11 16 18 30 7 14 18 34 25
45 7 11 23 38 35 60 12 22 31 54 42 70 11 17 23 37 27 45 3 8 30 53 58 100 28
47 54 92 58 100 4 8 18 33 32 55 14 22 28 47 32 55 3 8 14 26 23 40 10 14 28
45 42 70 14 25 58 101 98 170 41 69 80 136 87 150 8 14 23 39 33 55 11 17 23
37 27 45 3 8 17 32 30 53 13 21 32 53 43 71 10 18 24 44 32 57 7 13 15 26 18
29 6 6 23 37 57 99 13 25 27 48 31 51 4 3 13 16 19 30 7 14 28 52 48 85 19 33
41 71 47 85 7 14 15 27 19 30 3 3 8 12 12 20 4 8 11 22 17 30 6 8 66 112 135
230 68 118 131 224 140 235 8 10 15 25 15 32 0 7 5 13 10 13 6 0 10 5 10 11 0
13 80 151 93 160 5 3 8 9 8 13 -1 6 91 169 135 238 13 21 24 40 24 42 0 3 25
46 55 96 30 50 55 94 55 97 0 4 6 14 14 22 12 14 34 52 92 161 11 19 22 37 25
40 3 3 17 25 31 50 14 25 46 80 72 123 25 43 46 83 46 88 0 5 5 9 10 9 6 0 10
4 10 9 0 4 60 111 134 237 73 126 154 265 180 309 26 44 51 87 56 95 10 16 89
154 118 205 9 17 19 32 22 35 3 3 16 25 29 50 13 25 29 52 35 60 7 8 22 35 35
60 13 25 29 52 36 60 6 8 17 26 23 40 7 14 34 61 62 105 27 44 49 85 50 92 0
6 3 13 8 15 4 2 15 17 24 33 10 17 55 94 100 173 46 78 89 155 97 170 8 15 17
29 20 32 3 3 17 25 30 50 14 25 27 47 30 50 3 3 19 30 35 60 16 30 32 57 35
60 4 3 19 30 35 60 17 30 44 78 61 105 17 28 36 61 43 75 7 14 25 46 41 72 16
25 41 66 54 91 14 25 37 63 51 86 14 22 26 45 26 51 0 5 5 10 10 10 6 0 10 5
10 10 0 11 29 60 36 60 2 0 14 -19 26 -41z"/>
</g>
</svg>
